<mxfile host="app.diagrams.net" modified="2022-02-04T19:55:52.993Z" agent="5.0 (Windows NT 10.0; Win64; x64) AppleWebKit/537.36 (KHTML, like Gecko) Chrome/97.0.4692.99 Safari/537.36" etag="IUSNG4AjH5clgZXeCsTg" version="16.0.0" type="github">
  <diagram id="C5RBs43oDa-KdzZeNtuy" name="Page-1">
    <mxGraphModel dx="1865" dy="675" grid="1" gridSize="10" guides="1" tooltips="1" connect="1" arrows="1" fold="1" page="1" pageScale="1" pageWidth="827" pageHeight="1169" math="0" shadow="0">
      <root>
        <mxCell id="WIyWlLk6GJQsqaUBKTNV-0" />
        <mxCell id="WIyWlLk6GJQsqaUBKTNV-1" parent="WIyWlLk6GJQsqaUBKTNV-0" />
        <mxCell id="uWnADzFA29SDcUh1hwgd-1" value="" style="rounded=0;whiteSpace=wrap;html=1;" vertex="1" parent="WIyWlLk6GJQsqaUBKTNV-1">
          <mxGeometry x="100" y="170" width="700" height="420" as="geometry" />
        </mxCell>
        <mxCell id="uWnADzFA29SDcUh1hwgd-0" value="&lt;b&gt;Metadata Service (Backend)&lt;/b&gt;&lt;br&gt;- login (or not if there was an independently verifiable token)&lt;br&gt;- upload&amp;nbsp;&lt;br&gt;POST /file&lt;br&gt;Location: aws s3 arn&lt;br&gt;Request body: JSON with metadata&lt;br&gt;Authorization: Bearer &amp;lt;login token&amp;gt;&lt;br&gt;- upload v2 (GCP)&lt;br&gt;identical except the location it returned + how client interacts&lt;br&gt;- status&lt;br&gt;GET /file/XXXX&lt;br&gt;Response body: JSON with metadata, completeness, etc&lt;br&gt;- list my files (avoid clients stomping on their own numerous files)" style="rounded=1;whiteSpace=wrap;html=1;" vertex="1" parent="WIyWlLk6GJQsqaUBKTNV-1">
          <mxGeometry x="170" y="260" width="250" height="240" as="geometry" />
        </mxCell>
        <mxCell id="uWnADzFA29SDcUh1hwgd-2" value="Avalara" style="text;html=1;strokeColor=none;fillColor=none;align=center;verticalAlign=middle;whiteSpace=wrap;rounded=0;" vertex="1" parent="WIyWlLk6GJQsqaUBKTNV-1">
          <mxGeometry x="100" y="130" width="60" height="30" as="geometry" />
        </mxCell>
        <mxCell id="uWnADzFA29SDcUh1hwgd-3" value="" style="rounded=0;whiteSpace=wrap;html=1;" vertex="1" parent="WIyWlLk6GJQsqaUBKTNV-1">
          <mxGeometry x="100" y="670" width="370" height="140" as="geometry" />
        </mxCell>
        <mxCell id="uWnADzFA29SDcUh1hwgd-4" value="AWS" style="text;html=1;strokeColor=none;fillColor=none;align=center;verticalAlign=middle;whiteSpace=wrap;rounded=0;" vertex="1" parent="WIyWlLk6GJQsqaUBKTNV-1">
          <mxGeometry x="100" y="640" width="60" height="30" as="geometry" />
        </mxCell>
        <mxCell id="uWnADzFA29SDcUh1hwgd-5" value="S3" style="rounded=1;whiteSpace=wrap;html=1;" vertex="1" parent="WIyWlLk6GJQsqaUBKTNV-1">
          <mxGeometry x="140" y="680" width="120" height="60" as="geometry" />
        </mxCell>
        <mxCell id="uWnADzFA29SDcUh1hwgd-7" value="" style="endArrow=classic;html=1;rounded=0;entryX=-0.003;entryY=0.381;entryDx=0;entryDy=0;entryPerimeter=0;" edge="1" parent="WIyWlLk6GJQsqaUBKTNV-1" target="uWnADzFA29SDcUh1hwgd-1">
          <mxGeometry width="50" height="50" relative="1" as="geometry">
            <mxPoint x="10" y="250" as="sourcePoint" />
            <mxPoint x="400" y="440" as="targetPoint" />
          </mxGeometry>
        </mxCell>
        <mxCell id="uWnADzFA29SDcUh1hwgd-8" value="Web UI&lt;br&gt;(maybe Vue or React?)&lt;br&gt;+ Skylab" style="rounded=1;whiteSpace=wrap;html=1;" vertex="1" parent="WIyWlLk6GJQsqaUBKTNV-1">
          <mxGeometry x="140" y="190" width="140" height="60" as="geometry" />
        </mxCell>
        <mxCell id="uWnADzFA29SDcUh1hwgd-9" value="Mobile UI&lt;br&gt;(maybe React Native?)" style="rounded=1;whiteSpace=wrap;html=1;" vertex="1" parent="WIyWlLk6GJQsqaUBKTNV-1">
          <mxGeometry x="300" y="190" width="140" height="60" as="geometry" />
        </mxCell>
        <mxCell id="uWnADzFA29SDcUh1hwgd-10" value="DB&lt;br&gt;- file (store metadata JSON + status)" style="rounded=1;whiteSpace=wrap;html=1;" vertex="1" parent="WIyWlLk6GJQsqaUBKTNV-1">
          <mxGeometry x="170" y="520" width="120" height="60" as="geometry" />
        </mxCell>
        <mxCell id="uWnADzFA29SDcUh1hwgd-11" value="" style="endArrow=classic;html=1;rounded=0;exitX=1;exitY=0.75;exitDx=0;exitDy=0;entryX=0;entryY=0.5;entryDx=0;entryDy=0;" edge="1" parent="WIyWlLk6GJQsqaUBKTNV-1" source="uWnADzFA29SDcUh1hwgd-0" target="uWnADzFA29SDcUh1hwgd-12">
          <mxGeometry width="50" height="50" relative="1" as="geometry">
            <mxPoint x="350" y="490" as="sourcePoint" />
            <mxPoint x="500" y="373" as="targetPoint" />
          </mxGeometry>
        </mxCell>
        <mxCell id="uWnADzFA29SDcUh1hwgd-12" value="Eventing system (Kafka?)&lt;br&gt;topic for new file ingest" style="rounded=1;whiteSpace=wrap;html=1;" vertex="1" parent="WIyWlLk6GJQsqaUBKTNV-1">
          <mxGeometry x="500" y="390" width="120" height="60" as="geometry" />
        </mxCell>
        <mxCell id="uWnADzFA29SDcUh1hwgd-13" value="Virus scanner (ingestor)" style="rounded=1;whiteSpace=wrap;html=1;" vertex="1" parent="WIyWlLk6GJQsqaUBKTNV-1">
          <mxGeometry x="500" y="260" width="120" height="60" as="geometry" />
        </mxCell>
        <mxCell id="uWnADzFA29SDcUh1hwgd-14" value="" style="endArrow=classic;html=1;rounded=0;entryX=0.5;entryY=0;entryDx=0;entryDy=0;exitX=0.5;exitY=1;exitDx=0;exitDy=0;" edge="1" parent="WIyWlLk6GJQsqaUBKTNV-1" source="uWnADzFA29SDcUh1hwgd-13" target="uWnADzFA29SDcUh1hwgd-12">
          <mxGeometry width="50" height="50" relative="1" as="geometry">
            <mxPoint x="350" y="470" as="sourcePoint" />
            <mxPoint x="400" y="420" as="targetPoint" />
          </mxGeometry>
        </mxCell>
        <mxCell id="uWnADzFA29SDcUh1hwgd-15" value="" style="endArrow=classic;html=1;rounded=0;entryX=0;entryY=0.25;entryDx=0;entryDy=0;" edge="1" parent="WIyWlLk6GJQsqaUBKTNV-1" target="uWnADzFA29SDcUh1hwgd-3">
          <mxGeometry width="50" height="50" relative="1" as="geometry">
            <mxPoint x="10" y="480" as="sourcePoint" />
            <mxPoint x="400" y="420" as="targetPoint" />
          </mxGeometry>
        </mxCell>
        <mxCell id="uWnADzFA29SDcUh1hwgd-16" value="ALB /&lt;br&gt;Load Balancer" style="rounded=1;whiteSpace=wrap;html=1;" vertex="1" parent="WIyWlLk6GJQsqaUBKTNV-1">
          <mxGeometry x="-40" y="230" width="120" height="60" as="geometry" />
        </mxCell>
      </root>
    </mxGraphModel>
  </diagram>
</mxfile>
